<svg width="189" height="203" viewBox="0 0 189 203" fill="none" xmlns="http://www.w3.org/2000/svg">
<path fill-rule="evenodd" clip-rule="evenodd" d="M104.823 0.0711406C126.781 1.19188 145.786 15.3068 161.36 30.8614C175.199 44.6838 182.74 62.9854 186.956 82.1055C190.832 99.6835 188.783 117.299 184.262 134.721C179.458 153.233 176.773 175.759 160.195 185.236C143.691 194.671 123.682 177.816 104.823 180.135C81.3645 183.02 59.1054 211.987 38.612 200.188C18.8526 188.811 32.4033 156.446 25.7435 134.604C19.2734 113.384 -3.23635 96.7328 0.3935 74.8447C4.10251 52.4793 25.535 38.0479 43.9417 24.8683C62.213 11.7857 82.3969 -1.0735 104.823 0.0711406Z" fill="#1B222C"/>
</svg>
