<svg width="336" height="283" viewBox="0 0 336 283" fill="none" xmlns="http://www.w3.org/2000/svg">
<g clip-path="url(#clip0)">
<path d="M78.2455 242.024H93.1985C94.2189 236.134 94.2189 230.112 93.1985 224.221H78.2455C79.9301 230.036 79.9301 236.209 78.2455 242.024Z" fill="#3F3D56"/>
<path d="M73.891 242.645H88.844C89.8644 236.755 89.8644 230.733 88.844 224.843H73.891C75.5756 230.658 75.5756 236.83 73.891 242.645Z" fill="#FF6584"/>
<path d="M258.479 99.0599C252.238 99.0599 246.137 97.2118 240.948 93.7494C235.758 90.287 231.714 85.3657 229.325 79.6079C226.937 73.8501 226.312 67.5144 227.529 61.4019C228.747 55.2895 231.752 49.6748 236.166 45.268C240.579 40.8611 246.202 37.8601 252.323 36.6442C258.444 35.4284 264.789 36.0524 270.555 38.4373C276.321 40.8223 281.25 44.8611 284.717 50.043C288.185 55.2249 290.035 61.3171 290.035 67.5493C290.026 75.9035 286.698 83.9129 280.782 89.8202C274.866 95.7275 266.846 99.0504 258.479 99.0599Z" fill="#E6E6E6"/>
<path d="M40.5523 231.475C40.3712 231.475 40.1906 231.455 40.0138 231.417L34.4645 230.207C33.8168 230.066 33.2518 229.673 32.8937 229.115C32.5355 228.558 32.4133 227.882 32.5539 227.235L42.6476 181.05C42.7896 180.403 43.1829 179.839 43.741 179.481C44.2991 179.124 44.9765 179.002 45.6246 179.142L51.1741 180.352C51.495 180.422 51.799 180.554 52.0687 180.741C52.3384 180.929 52.5685 181.167 52.7459 181.443C52.9233 181.719 53.0445 182.027 53.1026 182.35C53.1607 182.673 53.1546 183.004 53.0845 183.325L42.991 229.509C42.8692 230.065 42.5613 230.563 42.1179 230.92C41.6745 231.278 41.1222 231.473 40.5523 231.475H40.5523Z" fill="#92FCFC"/>
<path d="M41.4152 180.425L37.6951 199.453C37.531 200.023 37.5929 200.634 37.8678 201.159C38.1427 201.684 38.6095 202.083 39.1714 202.274L47.3495 205.048C47.6726 205.158 48.0159 205.194 48.3549 205.156C48.6939 205.117 49.02 205.004 49.3099 204.824C49.5998 204.644 49.8462 204.403 50.0314 204.117C50.2166 203.83 50.336 203.507 50.381 203.169L53.0179 183.385C53.1474 182.788 53.0347 182.164 52.7044 181.65C52.3742 181.135 51.8533 180.772 51.2557 180.641L44.166 178.663C43.5672 178.533 42.9412 178.645 42.4255 178.976C41.9098 179.306 41.5464 179.827 41.4152 180.425Z" fill="#CCCCCC"/>
<path d="M73.7392 231.475C73.1693 231.473 72.617 231.278 72.1736 230.92C71.7302 230.563 71.4222 230.065 71.3005 229.509L61.207 183.325C61.1369 183.004 61.1307 182.673 61.1888 182.35C61.2469 182.028 61.3681 181.719 61.5455 181.443C61.723 181.167 61.9531 180.929 62.2228 180.741C62.4925 180.554 62.7965 180.422 63.1174 180.352L68.6668 179.142C69.3149 179.002 69.9925 179.124 70.5507 179.481C71.1088 179.839 71.502 180.403 71.6438 181.05L81.7376 227.235C81.8782 227.882 81.756 228.558 81.3978 229.115C81.0396 229.673 80.4747 230.066 79.8269 230.207L74.2777 231.417C74.1008 231.455 73.9203 231.475 73.7392 231.475Z" fill="#92FCFC"/>
<path d="M72.8763 180.425L76.5964 199.453C76.7605 200.023 76.6986 200.634 76.4237 201.159C76.1489 201.684 75.682 202.083 75.1201 202.274L66.942 205.048C66.6189 205.158 66.2756 205.194 65.9366 205.156C65.5976 205.117 65.2715 205.004 64.9816 204.824C64.6917 204.644 64.4453 204.403 64.2601 204.117C64.0749 203.83 63.9555 203.507 63.9105 203.169L61.2736 183.385C61.1441 182.788 61.2568 182.164 61.5871 181.65C61.9173 181.135 62.4383 180.772 63.0358 180.641L70.1255 178.663C70.7243 178.533 71.3503 178.645 71.866 178.976C72.3818 179.306 72.7451 179.827 72.8763 180.425Z" fill="#CCCCCC"/>
<path d="M136.873 19.5149C139.848 19.5149 142.26 17.1063 142.26 14.1351C142.26 11.1638 139.848 8.7552 136.873 8.7552C133.897 8.7552 131.485 11.1638 131.485 14.1351C131.485 17.1063 133.897 19.5149 136.873 19.5149Z" fill="#E6E6E6"/>
<path d="M133.409 109.051C138.722 109.051 143.03 104.75 143.03 99.4442C143.03 94.1384 138.722 89.8373 133.409 89.8373C128.096 89.8373 123.788 94.1384 123.788 99.4442C123.788 104.75 128.096 109.051 133.409 109.051Z" fill="#E6E6E6"/>
<path d="M316.589 117.121C317.864 117.121 318.898 116.089 318.898 114.815C318.898 113.542 317.864 112.51 316.589 112.51C315.314 112.51 314.28 113.542 314.28 114.815C314.28 116.089 315.314 117.121 316.589 117.121Z" fill="#FF6584"/>
<path d="M318.898 19.5149C320.173 19.5149 321.207 18.4826 321.207 17.2093C321.207 15.9359 320.173 14.9036 318.898 14.9036C317.623 14.9036 316.589 15.9359 316.589 17.2093C316.589 18.4826 317.623 19.5149 318.898 19.5149Z" fill="#F2F2F2"/>
<path d="M284.263 160.544C285.538 160.544 286.572 159.512 286.572 158.238C286.572 156.965 285.538 155.933 284.263 155.933C282.988 155.933 281.954 156.965 281.954 158.238C281.954 159.512 282.988 160.544 284.263 160.544Z" fill="#F2F2F2"/>
<path d="M217.302 17.2093C218.577 17.2093 219.611 16.177 219.611 14.9036C219.611 13.6302 218.577 12.598 217.302 12.598C216.027 12.598 214.993 13.6302 214.993 14.9036C214.993 16.177 216.027 17.2093 217.302 17.2093Z" fill="#FF6584"/>
<path d="M253.092 58.3267C251.95 58.3267 250.834 57.9886 249.885 57.3552C248.935 56.7219 248.195 55.8216 247.758 54.7684C247.322 53.7151 247.207 52.5561 247.43 51.438C247.653 50.3199 248.203 49.2928 249.01 48.4867C249.817 47.6806 250.846 47.1316 251.965 46.9092C253.085 46.6868 254.246 46.8009 255.301 47.2372C256.355 47.6735 257.257 48.4123 257.891 49.3602C258.525 50.3081 258.864 51.4225 258.864 52.5625C258.862 54.0908 258.254 55.5559 257.171 56.6365C256.089 57.7171 254.622 58.325 253.092 58.3267ZM253.092 47.567C252.102 47.567 251.135 47.86 250.312 48.4089C249.489 48.9578 248.848 49.738 248.47 50.6508C248.091 51.5636 247.992 52.5681 248.185 53.5371C248.378 54.5062 248.854 55.3963 249.554 56.095C250.254 56.7936 251.145 57.2694 252.116 57.4621C253.086 57.6549 254.092 57.556 255.006 57.1779C255.92 56.7998 256.702 56.1595 257.251 55.3379C257.801 54.5164 258.094 53.5506 258.094 52.5625C258.094 51.2376 257.567 49.967 256.629 49.0301C255.691 48.0933 254.418 47.567 253.092 47.567Z" fill="#CCCCCC"/>
<path d="M242.316 72.9291C241.479 72.9291 240.661 72.6812 239.964 72.2168C239.268 71.7523 238.726 71.0921 238.405 70.3197C238.085 69.5473 238.001 68.6974 238.164 67.8775C238.328 67.0575 238.731 66.3043 239.323 65.7132C239.915 65.122 240.669 64.7194 241.49 64.5563C242.312 64.3932 243.163 64.4769 243.936 64.7969C244.71 65.1168 245.371 65.6586 245.836 66.3537C246.301 67.0488 246.549 67.8661 246.549 68.7021C246.548 69.8228 246.102 70.8972 245.308 71.6897C244.515 72.4821 243.439 72.9279 242.316 72.9291ZM242.316 65.2436C241.631 65.2436 240.962 65.4465 240.392 65.8265C239.823 66.2065 239.379 66.7467 239.116 67.3786C238.854 68.0106 238.786 68.706 238.919 69.3768C239.053 70.0477 239.383 70.664 239.867 71.1476C240.352 71.6313 240.969 71.9607 241.641 72.0941C242.312 72.2276 243.009 72.1591 243.642 71.8973C244.275 71.6356 244.815 71.1923 245.196 70.6235C245.577 70.0548 245.78 69.3861 245.78 68.7021C245.78 67.7849 245.415 66.9052 244.765 66.2566C244.116 65.608 243.235 65.2436 242.316 65.2436Z" fill="#CCCCCC"/>
<path d="M266.176 93.2958C265.339 93.2958 264.52 93.0478 263.824 92.5834C263.128 92.1189 262.585 91.4587 262.265 90.6863C261.945 89.9139 261.861 89.064 262.024 88.2441C262.187 87.4241 262.591 86.6709 263.183 86.0797C263.775 85.4886 264.529 85.086 265.35 84.9229C266.171 84.7598 267.022 84.8435 267.796 85.1634C268.569 85.4834 269.23 86.0252 269.696 86.7203C270.161 87.4154 270.409 88.2327 270.409 89.0687C270.408 90.1894 269.961 91.2638 269.168 92.0563C268.374 92.8487 267.298 93.2945 266.176 93.2958ZM266.176 85.6102C265.491 85.6102 264.821 85.8131 264.252 86.1931C263.682 86.5731 263.238 87.1133 262.976 87.7452C262.714 88.3772 262.645 89.0726 262.779 89.7434C262.913 90.4143 263.242 91.0306 263.727 91.5142C264.211 91.9979 264.828 92.3273 265.5 92.4607C266.172 92.5942 266.868 92.5257 267.501 92.2639C268.134 92.0022 268.675 91.5589 269.056 90.9901C269.436 90.4214 269.639 89.7527 269.639 89.0687C269.638 88.1518 269.273 87.2727 268.624 86.6243C267.974 85.976 267.094 85.6113 266.176 85.6102Z" fill="#CCCCCC"/>
<path d="M258.479 80.2304C232.152 80.2304 211.53 74.6603 211.53 67.5493C211.53 63.4058 217.651 59.8452 228.765 57.5234L228.923 58.2758C218.358 60.4826 212.299 63.8627 212.299 67.5493C212.299 74.0066 233.447 79.4618 258.479 79.4618C283.511 79.4618 304.659 74.0066 304.659 67.5493C304.659 63.8557 298.579 60.4714 287.979 58.264L288.136 57.5116C299.287 59.8338 305.429 63.3985 305.429 67.5493C305.429 74.6603 284.806 80.2304 258.479 80.2304Z" fill="#CCCCCC"/>
<path d="M234.789 202.129C233.722 202.129 232.643 202.112 231.584 202.079L231.609 201.311C233.129 201.358 234.68 201.372 236.207 201.35L236.218 202.119C235.742 202.125 235.266 202.129 234.789 202.129ZM240.849 201.951L240.803 201.183C242.326 201.094 243.868 200.968 245.387 200.809L245.467 201.573C243.937 201.733 242.383 201.86 240.849 201.951ZM226.958 201.831C225.423 201.713 223.871 201.56 222.347 201.373L222.441 200.61C223.954 200.795 225.493 200.948 227.016 201.065L226.958 201.831ZM250.063 200.986L249.947 200.226C251.46 199.997 252.984 199.731 254.477 199.435L254.627 200.188C253.123 200.487 251.587 200.755 250.063 200.986H250.063ZM217.762 200.705C216.245 200.448 214.714 200.153 213.212 199.827L213.375 199.076C214.866 199.399 216.385 199.692 217.89 199.947L217.762 200.705ZM259.15 199.182L258.965 198.436C260.45 198.07 261.943 197.664 263.403 197.232L263.622 197.969C262.15 198.405 260.646 198.813 259.15 199.182H259.15ZM208.708 198.742C207.22 198.346 205.723 197.912 204.258 197.449L204.49 196.717C205.944 197.176 207.429 197.607 208.905 197.999L208.708 198.742ZM268.033 196.551L267.78 195.825C269.221 195.325 270.67 194.784 272.088 194.217L272.374 194.931C270.945 195.502 269.485 196.047 268.033 196.551H268.033ZM199.861 195.949C198.417 195.419 196.963 194.846 195.541 194.248L195.84 193.54C197.251 194.133 198.693 194.701 200.127 195.228L199.861 195.949ZM276.626 193.117L276.307 192.418C277.691 191.79 279.081 191.12 280.441 190.426L280.791 191.11C279.421 191.81 278.02 192.485 276.626 193.117ZM191.304 192.351C189.916 191.69 188.522 190.987 187.161 190.262L187.524 189.584C188.874 190.304 190.257 191.002 191.635 191.658L191.304 192.351ZM284.86 188.914L284.479 188.247C285.806 187.491 287.131 186.696 288.416 185.884L288.827 186.533C287.532 187.351 286.198 188.153 284.86 188.914V188.914ZM183.12 187.985C181.799 187.2 180.476 186.373 179.189 185.526L179.612 184.884C180.89 185.725 182.203 186.546 183.514 187.324L183.12 187.985ZM292.681 183.973L292.241 183.344C293.49 182.472 294.737 181.559 295.947 180.63L296.416 181.24C295.197 182.175 293.941 183.095 292.681 183.973L292.681 183.973ZM175.375 182.891C174.133 181.99 172.892 181.046 171.686 180.085L172.167 179.485C173.363 180.438 174.594 181.375 175.827 182.269L175.375 182.891ZM300.023 178.339L299.527 177.751C300.691 176.77 301.85 175.747 302.972 174.712L303.495 175.276C302.364 176.32 301.196 177.35 300.023 178.339V178.339ZM168.13 177.115C166.973 176.103 165.824 175.051 164.714 173.987L165.247 173.432C166.349 174.488 167.489 175.533 168.637 176.537L168.13 177.115ZM306.824 172.057L306.276 171.518C307.35 170.431 308.412 169.307 309.432 168.176L310.004 168.69C308.976 169.83 307.906 170.963 306.824 172.057H306.824ZM161.445 170.708C160.384 169.593 159.335 168.441 158.329 167.284L158.911 166.78C159.909 167.929 160.949 169.072 162.003 170.178L161.445 170.708ZM313.027 165.182L312.433 164.694C313.403 163.516 314.358 162.299 315.272 161.079L315.888 161.539C314.967 162.769 314.005 163.995 313.027 165.182H313.027ZM155.373 163.723C154.42 162.52 153.481 161.279 152.583 160.032L153.208 159.583C154.099 160.82 155.031 162.052 155.977 163.246L155.373 163.723ZM318.58 157.768L317.943 157.336C318.802 156.074 319.642 154.776 320.442 153.475L321.098 153.877C320.292 155.188 319.445 156.497 318.58 157.768H318.58ZM149.966 156.22C149.127 154.936 148.306 153.615 147.526 152.292L148.189 151.902C148.964 153.214 149.778 154.526 150.61 155.799L149.966 156.22ZM323.435 149.875L322.761 149.503C323.5 148.168 324.218 146.797 324.896 145.428L325.586 145.768C324.903 147.148 324.179 148.53 323.435 149.875V149.875ZM145.269 148.259C144.551 146.904 143.855 145.514 143.201 144.128L143.897 143.8C144.547 145.176 145.237 146.555 145.949 147.899L145.269 148.259ZM327.545 141.566L326.84 141.258C327.453 139.859 328.042 138.427 328.591 137.001L329.309 137.276C328.757 138.714 328.163 140.157 327.545 141.566V141.566ZM141.324 139.908C140.734 138.494 140.169 137.047 139.645 135.608L140.368 135.345C140.889 136.774 141.449 138.209 142.035 139.612L141.324 139.908ZM330.873 132.908L330.143 132.667C330.623 131.221 331.076 129.744 331.49 128.276L332.231 128.484C331.814 129.963 331.357 131.452 330.873 132.908V132.908ZM138.162 131.224C137.704 129.759 137.274 128.263 136.883 126.776L137.628 126.581C138.016 128.057 138.443 129.542 138.897 130.995L138.162 131.224ZM333.382 124.002L332.632 123.827C332.977 122.346 333.291 120.834 333.568 119.332L334.325 119.471C334.047 120.984 333.729 122.508 333.382 124.002H333.382ZM135.812 122.275C135.491 120.774 135.2 119.244 134.948 117.729L135.708 117.603C135.958 119.107 136.246 120.625 136.564 122.114L135.812 122.275ZM335.059 114.903L334.296 114.799C334.503 113.293 334.678 111.758 334.816 110.236L335.582 110.305C335.443 111.84 335.267 113.386 335.059 114.903H335.059ZM134.295 113.148C134.113 111.627 133.964 110.077 133.852 108.543L134.62 108.486C134.731 110.01 134.879 111.547 135.059 113.057L134.295 113.148ZM335.896 105.69L335.127 105.655C335.195 104.132 335.23 102.588 335.23 101.064H336C336 102.599 335.965 104.155 335.896 105.69H335.896ZM133.619 103.921C133.592 102.979 133.579 102.018 133.579 101.064C133.579 100.473 133.584 99.8827 133.594 99.2935L134.364 99.307C134.353 99.8917 134.348 100.477 134.348 101.064C134.349 102.01 134.362 102.965 134.388 103.9L133.619 103.921ZM335.225 99.9923C335.209 98.4685 335.158 96.9241 335.073 95.4016L335.841 95.3588C335.927 96.8929 335.978 98.449 335.994 99.984L335.225 99.9923ZM134.546 94.7188L133.778 94.6707C133.874 93.1351 134.007 91.5842 134.172 90.0607L134.937 90.1435C134.773 91.6555 134.642 93.1946 134.546 94.7188ZM334.713 90.8242C334.559 89.3091 334.368 87.7761 334.145 86.2675L334.906 86.1553C335.131 87.6754 335.324 89.22 335.479 90.7466L334.713 90.8242ZM135.536 85.5911L134.776 85.4737C135.012 83.9533 135.286 82.4208 135.59 80.9185L136.344 81.0708C136.042 82.5618 135.77 84.0825 135.536 85.5911ZM333.368 81.7424C333.075 80.2432 332.744 78.734 332.384 77.257L333.131 77.0753C333.494 78.5636 333.828 80.0844 334.124 81.5949L333.368 81.7424ZM137.359 76.5925L136.613 76.4057C136.987 74.9172 137.401 73.4163 137.843 71.9445L138.58 72.1655C138.141 73.626 137.73 75.1155 137.359 76.5925ZM331.193 72.8215C330.764 71.3581 330.295 69.8861 329.799 68.4458L330.527 68.1959C331.026 69.6473 331.499 71.1309 331.932 72.6053L331.193 72.8215ZM140.009 67.7874L139.283 67.5326C139.794 66.0798 140.347 64.62 140.924 63.1938L141.638 63.482C141.065 64.8971 140.516 66.3458 140.009 67.7874ZM328.204 64.1389C327.643 62.7245 327.041 61.305 326.417 59.9197L327.119 59.6041C327.748 61.0001 328.354 62.4305 328.92 63.8555L328.204 64.1389ZM143.463 59.2576L142.764 58.9367C143.407 57.5388 144.091 56.137 144.798 54.7703L145.481 55.1227C144.78 56.4791 144.101 57.8702 143.463 59.2576ZM324.437 55.7854C323.749 54.4286 323.019 53.069 322.268 51.7449L322.938 51.3662C323.694 52.7007 324.43 54.0706 325.124 55.4379L324.437 55.7854ZM147.688 51.0859L147.021 50.7024C147.788 49.3711 148.598 48.0385 149.427 46.742L150.076 47.1555C149.253 48.4423 148.449 49.7648 147.688 51.0859L147.688 51.0859ZM319.916 47.806C319.102 46.5133 318.251 45.2253 317.385 43.9779L318.017 43.54C318.89 44.797 319.748 46.0947 320.567 47.3974L319.916 47.806ZM152.642 43.3394L152.013 42.8966C152.9 41.64 153.828 40.3875 154.77 39.1739L155.378 39.6449C154.443 40.8495 153.522 42.0924 152.642 43.3394ZM314.68 40.2682C313.753 39.0552 312.787 37.8492 311.809 36.684L312.399 36.1904C313.384 37.3646 314.357 38.5795 315.292 39.8018L314.68 40.2682ZM158.281 36.08L157.695 35.5817C158.691 34.4138 159.728 33.2514 160.779 32.1268L161.342 32.651C160.299 33.7672 159.269 34.921 158.281 36.08ZM308.777 33.2332C307.743 32.1095 306.67 30.9957 305.589 29.9232L306.132 29.3779C307.221 30.4589 308.302 31.5809 309.343 32.7131L308.777 33.2332ZM164.555 29.3659L164.017 28.8165C165.118 27.7413 166.257 26.6784 167.402 25.6573L167.914 26.2307C166.778 27.2439 165.648 28.2988 164.555 29.3659L164.555 29.3659ZM302.255 26.7606C301.122 25.7344 299.952 24.7223 298.778 23.7524L299.269 23.1603C300.451 24.1375 301.63 25.1572 302.772 26.1913L302.255 26.7606ZM171.412 23.2515L170.926 22.6555C172.117 21.6875 173.347 20.7328 174.583 19.8179L175.042 20.4352C173.815 21.3434 172.594 22.2908 171.412 23.2515ZM295.167 20.9047C293.944 19.9855 292.687 19.0835 291.428 18.224L291.863 17.5898C293.131 18.4557 294.398 19.3644 295.63 20.2908L295.167 20.9047ZM178.794 17.7881L178.365 17.1505C179.639 16.2945 180.95 15.4564 182.263 14.6587L182.663 15.3155C181.36 16.1069 180.059 16.9389 178.794 17.7881ZM287.57 15.7164C286.27 14.9126 284.934 14.129 283.601 13.3871L283.975 12.7158C285.319 13.4633 286.665 14.2531 287.975 15.0627L287.57 15.7164ZM186.64 13.0226L186.271 12.3482C187.618 11.6117 189 10.8972 190.378 10.2242L190.716 10.9147C189.349 11.5825 187.978 12.2915 186.64 13.0226V13.0226ZM279.527 11.2419C278.157 10.5606 276.754 9.90239 275.357 9.28564L275.668 8.58276C277.076 9.2042 278.49 9.86749 279.87 10.5541L279.527 11.2419ZM194.884 8.99611L194.578 8.29097C195.986 7.68134 197.427 7.09667 198.86 6.55309L199.133 7.27173C197.711 7.81101 196.282 8.39118 194.884 8.99611ZM271.1 7.52261C269.675 6.9708 268.217 6.44428 266.765 5.95793L267.01 5.22916C268.473 5.71945 269.942 6.24989 271.378 6.80623L271.1 7.52261ZM203.469 5.74084L203.229 5.01057C204.692 4.53173 206.184 4.08084 207.664 3.67086L207.87 4.41127C206.401 4.81827 204.92 5.26557 203.469 5.74084ZM262.372 4.59814C260.905 4.18028 259.407 3.79112 257.922 3.44156L258.099 2.69365C259.596 3.04584 261.104 3.43799 262.584 3.85886L262.372 4.59814ZM212.328 3.28564L212.157 2.53642C213.657 2.19436 215.184 1.8827 216.697 1.61025L216.834 2.36642C215.332 2.637 213.816 2.94622 212.328 3.28565V3.28564ZM253.424 2.49138C251.925 2.21048 250.398 1.96057 248.886 1.74854L248.993 0.987493C250.517 1.20121 252.055 1.45301 253.566 1.73596L253.424 2.49138ZM221.377 1.6551L221.275 0.893303C222.798 0.690279 224.348 0.519534 225.88 0.386309L225.947 1.15186C224.426 1.28434 222.889 1.45359 221.377 1.65511L221.377 1.6551ZM244.319 1.21415C242.803 1.07155 241.26 0.961596 239.732 0.887853L239.77 0.120071C241.309 0.194563 242.863 0.305293 244.391 0.449012L244.319 1.21415ZM230.536 0.857084L230.504 0.0893017C231.919 0.0303846 233.36 0.000365174 234.789 -1.52588e-05L235.138 0.000553508L235.135 0.769104L234.789 0.768535C233.371 0.76892 231.94 0.798736 230.536 0.857096L230.536 0.857084Z" fill="#E6E6E6"/>
<path d="M148 141.717C151.604 137.363 155.673 133.27 160.64 130.566C165.607 127.862 171.591 126.662 177.014 128.27C181.062 129.47 184.512 132.111 187.706 134.87C194.249 140.523 200.282 146.996 207.999 150.902C215.717 154.809 225.885 155.538 232.44 149.899C237.628 145.435 239.84 137.705 246.035 134.791C252.142 131.92 259.223 135.003 265.421 137.676C273.836 141.304 282.545 144.213 291.454 146.372C297.48 147.832 303.688 148.951 309.861 148.364C316.034 147.776 322.23 145.309 326.256 140.599" fill="#E6E6E6"/>
<path d="M118.572 120.089H134.11C135.171 113.968 135.171 107.71 134.11 101.589H118.572C120.323 107.632 120.323 114.046 118.572 120.089Z" fill="#92FCFC"/>
<path d="M263.269 72.4387H278.807C279.867 66.3176 279.867 60.0602 278.807 53.9392H263.269C265.019 59.9818 265.019 66.396 263.269 72.4387Z" fill="#92FCFC"/>
<path d="M131.87 107.514H121.479V108.667H131.87V107.514Z" fill="#F2F2F2"/>
<path d="M131.87 110.204H121.479V111.357H131.87V110.204Z" fill="#F2F2F2"/>
<path d="M276.951 58.3267H266.561V59.4795H276.951V58.3267Z" fill="#F2F2F2"/>
<path d="M276.951 63.7066H266.561V64.8594H276.951V63.7066Z" fill="#F2F2F2"/>
<path d="M276.951 61.0166H266.561V62.1695H276.951V61.0166Z" fill="#F2F2F2"/>
<path d="M124.698 282.139H0V283H124.698V282.139Z" fill="#3F3D56"/>
<path d="M57.2118 174.862C68.5866 174.862 77.8077 165.654 77.8077 154.296C77.8077 142.937 68.5866 133.73 57.2118 133.73C45.837 133.73 36.616 142.937 36.616 154.296C36.616 165.654 45.837 174.862 57.2118 174.862Z" fill="#92FCFC"/>
<path d="M53.9665 282.392H48.2867C47.6235 282.392 46.9877 282.128 46.5188 281.66C46.0498 281.192 45.786 280.557 45.7853 279.895V232.623C45.786 231.961 46.0498 231.326 46.5188 230.858C46.9877 230.389 47.6235 230.126 48.2867 230.125H53.9665C54.6297 230.126 55.2655 230.389 55.7344 230.858C56.2034 231.326 56.4672 231.961 56.4679 232.623V279.895C56.4672 280.557 56.2034 281.192 55.7344 281.66C55.2655 282.128 54.6297 282.392 53.9665 282.392Z" fill="#2F2E41"/>
<path d="M65.2007 282.392H59.5207C58.8575 282.392 58.2217 282.128 57.7528 281.66C57.2838 281.192 57.0201 280.557 57.0193 279.895V232.623C57.0201 231.961 57.2838 231.326 57.7528 230.858C58.2217 230.389 58.8575 230.126 59.5207 230.125H65.2007C65.8639 230.126 66.4997 230.389 66.9686 230.858C67.4376 231.326 67.7014 231.961 67.7021 232.623V279.895C67.7014 280.557 67.4376 281.192 66.9686 281.66C66.4997 282.128 65.8639 282.392 65.2007 282.392Z" fill="#2F2E41"/>
<path d="M69.8817 237.988H44.0739C43.4107 237.987 42.7749 237.724 42.306 237.256C41.8371 236.788 41.5733 236.153 41.5725 235.49V180.741C41.5733 180.078 41.8371 179.444 42.306 178.975C42.7749 178.507 43.4107 178.244 44.0739 178.243H69.8817C70.5448 178.244 71.1806 178.507 71.6496 178.975C72.1185 179.444 72.3823 180.078 72.3831 180.741V235.49C72.3823 236.153 72.1185 236.788 71.6496 237.256C71.1806 237.724 70.5448 237.987 69.8817 237.988Z" fill="#CCCCCC"/>
<path d="M67.189 145.6C67.0837 145.138 66.8359 144.72 66.4805 144.406C66.125 144.091 65.6798 143.896 65.2074 143.847C64.6837 143.786 64.1529 143.857 63.664 144.054C63.1751 144.251 62.7437 144.568 62.4097 144.976C61.6142 145.854 61.1925 146.949 60.6205 147.968C60.0233 149.032 59.2216 149.798 57.9873 150.026C55.4789 150.49 53.3188 148.718 51.6453 147.095C49.6968 145.207 47.9294 143.141 46.3664 140.923C44.8746 138.804 43.3618 136.502 42.8322 133.926C42.5751 132.842 42.6269 131.708 42.9819 130.652C43.3369 129.596 43.9808 128.66 44.8408 127.951C48.7946 124.689 54.3267 126.045 58.9641 126.183C61.6909 126.264 64.4172 125.902 66.7445 124.386C68.7111 123.106 70.2041 121.121 70.2525 118.708C70.2673 117.966 69.1128 117.966 69.098 118.708C69.055 120.851 67.589 122.555 65.8158 123.606C63.6672 124.88 61.2326 125.112 58.7795 125.024C53.9666 124.852 48.6357 123.689 44.4431 126.808C43.559 127.439 42.8346 128.268 42.3278 129.228C41.8209 130.188 41.5456 131.253 41.5237 132.338C41.4862 134.911 42.702 137.362 44.034 139.494C45.4637 141.779 47.0954 143.932 48.9097 145.927C50.6329 147.822 52.5518 149.908 55.0018 150.839C56.1838 151.299 57.4824 151.369 58.7072 151.039C59.3342 150.839 59.9147 150.516 60.4146 150.088C60.9144 149.661 61.3234 149.138 61.6174 148.55C62.2252 147.467 62.6538 146.124 63.6908 145.355C64.4305 144.806 65.8887 144.764 66.0757 145.907C66.1953 146.637 67.308 146.327 67.189 145.6H67.189Z" fill="#2F2E41"/>
<path d="M219.611 155.164C220.886 155.164 221.92 154.132 221.92 152.858C221.92 151.585 220.886 150.553 219.611 150.553C218.336 150.553 217.302 151.585 217.302 152.858C217.302 154.132 218.336 155.164 219.611 155.164Z" fill="#FF6584"/>
<path d="M215.55 171.582H231.088C232.148 165.461 232.148 159.203 231.088 153.082H215.55C217.3 159.125 217.3 165.539 215.55 171.582Z" fill="#3F3D56"/>
<path d="M228.847 160.16H218.457V161.312H228.847V160.16Z" fill="#F2F2F2"/>
<path d="M74.6044 163.387L74.583 162.619C76.0149 162.579 77.2772 162.489 78.2258 161.797C78.4947 161.59 78.7157 161.327 78.8739 161.027C79.032 160.726 79.1235 160.396 79.1422 160.057C79.1588 159.85 79.1275 159.642 79.0506 159.449C78.9736 159.256 78.8531 159.084 78.6985 158.945C78.0689 158.414 77.0557 158.586 76.3172 158.924L75.6804 159.215L76.9016 150.304L77.6641 150.408L76.6254 157.988C77.6288 157.694 78.5585 157.821 79.1954 158.358C79.4399 158.571 79.6317 158.838 79.7559 159.137C79.8801 159.437 79.9333 159.761 79.9113 160.084C79.8888 160.539 79.7669 160.984 79.5542 161.387C79.3415 161.79 79.043 162.142 78.6797 162.418C77.461 163.307 75.8771 163.351 74.6044 163.387Z" fill="#2F2E41"/>
<path d="M72.4962 151.062H68.351V151.83H72.4962V151.062Z" fill="#2F2E41"/>
</g>
<defs>
<clipPath id="clip0">
<rect width="336" height="283" fill="white"/>
</clipPath>
</defs>
</svg>
